<mxfile host="app.diagrams.net" agent="Mozilla/5.0 (X11; Linux x86_64; rv:141.0) Gecko/20100101 Firefox/141.0" version="28.1.0">
  <diagram name="Page-1" id="OVlfO9ZSmXn_O_tq2TSf">
    <mxGraphModel dx="1257" dy="852" grid="1" gridSize="10" guides="1" tooltips="1" connect="1" arrows="1" fold="1" page="1" pageScale="1" pageWidth="850" pageHeight="1100" background="light-dark(#FFFFFF,#121212)" math="0" shadow="0">
      <root>
        <mxCell id="0" />
        <mxCell id="1" parent="0" />
        <mxCell id="UXyspMPHy7GLzwwd2S_z-1" value="" style="html=1;shadow=0;dashed=0;align=center;verticalAlign=middle;shape=mxgraph.arrows2.arrow;dy=0.67;dx=20;notch=0;fontColor=#EEEEEE;labelBackgroundColor=none;fillColor=#09555B;strokeColor=#BAC8D3;" vertex="1" parent="1">
          <mxGeometry x="390" y="315" width="150" height="60" as="geometry" />
        </mxCell>
        <mxCell id="UXyspMPHy7GLzwwd2S_z-2" value="POST" style="text;html=1;align=center;verticalAlign=middle;whiteSpace=wrap;rounded=0;fontColor=#EEEEEE;labelBackgroundColor=none;" vertex="1" parent="1">
          <mxGeometry x="430" y="300" width="60" height="30" as="geometry" />
        </mxCell>
        <mxCell id="UXyspMPHy7GLzwwd2S_z-3" value="Endpoint: /admin/login&lt;br&gt;&lt;br&gt;&lt;div style=&quot;&quot;&gt;&lt;span style=&quot;&quot;&gt;Payload:&lt;/span&gt;&lt;/div&gt;&lt;div style=&quot;&quot;&gt;{&lt;/div&gt;&lt;div style=&quot;&quot;&gt;&amp;nbsp; &amp;nbsp; &amp;nbsp; &amp;nbsp;&quot;username&quot; : &quot;&quot;,&lt;/div&gt;&lt;div style=&quot;&quot;&gt;&amp;nbsp; &amp;nbsp; &amp;nbsp; &amp;nbsp;&quot;password&quot; : &quot;&quot;&lt;/div&gt;&lt;div style=&quot;&quot;&gt;}&lt;/div&gt;" style="whiteSpace=wrap;html=1;aspect=fixed;align=left;fontColor=#EEEEEE;labelBackgroundColor=none;fillColor=#09555B;strokeColor=#BAC8D3;" vertex="1" parent="1">
          <mxGeometry x="560" y="270" width="140" height="140" as="geometry" />
        </mxCell>
        <mxCell id="UXyspMPHy7GLzwwd2S_z-4" style="edgeStyle=orthogonalEdgeStyle;rounded=0;orthogonalLoop=1;jettySize=auto;html=1;exitX=0.5;exitY=1;exitDx=0;exitDy=0;fontColor=default;labelBackgroundColor=none;strokeColor=#0B4D6A;" edge="1" parent="1" source="UXyspMPHy7GLzwwd2S_z-2" target="UXyspMPHy7GLzwwd2S_z-2">
          <mxGeometry relative="1" as="geometry" />
        </mxCell>
        <mxCell id="UXyspMPHy7GLzwwd2S_z-5" value="" style="rhombus;whiteSpace=wrap;html=1;fontColor=#EEEEEE;labelBackgroundColor=none;fillColor=#09555B;strokeColor=#BAC8D3;" vertex="1" parent="1">
          <mxGeometry x="170" y="263.75" width="210" height="162.5" as="geometry" />
        </mxCell>
        <mxCell id="UXyspMPHy7GLzwwd2S_z-6" value="Login" style="text;html=1;align=center;verticalAlign=middle;whiteSpace=wrap;rounded=0;fontColor=#EEEEEE;labelBackgroundColor=none;" vertex="1" parent="1">
          <mxGeometry x="240" y="330" width="60" height="30" as="geometry" />
        </mxCell>
        <mxCell id="UXyspMPHy7GLzwwd2S_z-7" value="" style="html=1;shadow=0;dashed=0;align=center;verticalAlign=middle;shape=mxgraph.arrows2.arrow;dy=0.67;dx=20;notch=0;fontColor=#EEEEEE;labelBackgroundColor=none;fillColor=#09555B;strokeColor=#BAC8D3;" vertex="1" parent="1">
          <mxGeometry x="710" y="315" width="140" height="60" as="geometry" />
        </mxCell>
        <mxCell id="UXyspMPHy7GLzwwd2S_z-8" style="edgeStyle=orthogonalEdgeStyle;rounded=0;orthogonalLoop=1;jettySize=auto;html=1;exitX=0.5;exitY=1;exitDx=0;exitDy=0;strokeWidth=3;fontColor=default;labelBackgroundColor=none;strokeColor=#0B4D6A;" edge="1" parent="1" source="UXyspMPHy7GLzwwd2S_z-9" target="UXyspMPHy7GLzwwd2S_z-10">
          <mxGeometry relative="1" as="geometry">
            <mxPoint x="916" y="480" as="targetPoint" />
            <Array as="points">
              <mxPoint x="915" y="445" />
              <mxPoint x="915" y="445" />
            </Array>
          </mxGeometry>
        </mxCell>
        <mxCell id="UXyspMPHy7GLzwwd2S_z-9" value="Node JS" style="rhombus;whiteSpace=wrap;html=1;fontColor=#EEEEEE;labelBackgroundColor=none;fillColor=#09555B;strokeColor=#BAC8D3;" vertex="1" parent="1">
          <mxGeometry x="860" y="300" width="110" height="100" as="geometry" />
        </mxCell>
        <mxCell id="UXyspMPHy7GLzwwd2S_z-10" value="Validation check whether the credential is wrong or not?" style="shape=hexagon;perimeter=hexagonPerimeter2;whiteSpace=wrap;html=1;fixedSize=1;fontColor=#EEEEEE;labelBackgroundColor=none;fillColor=#09555B;strokeColor=#BAC8D3;" vertex="1" parent="1">
          <mxGeometry x="830" y="460" width="195" height="130" as="geometry" />
        </mxCell>
        <mxCell id="UXyspMPHy7GLzwwd2S_z-11" value="admim table&lt;br&gt;&lt;br&gt;&lt;div style=&quot;text-align: left;&quot;&gt;&lt;span style=&quot;&quot;&gt;columns:&lt;/span&gt;&lt;/div&gt;&lt;div style=&quot;text-align: left;&quot;&gt;1.id&lt;/div&gt;&lt;div style=&quot;text-align: left;&quot;&gt;2.username&lt;/div&gt;&lt;div style=&quot;text-align: left;&quot;&gt;3.password&lt;/div&gt;" style="shape=cylinder3;whiteSpace=wrap;html=1;boundedLbl=1;backgroundOutline=1;size=15;fontColor=#EEEEEE;labelBackgroundColor=none;fillColor=#09555B;strokeColor=#BAC8D3;" vertex="1" parent="1">
          <mxGeometry x="837.5" y="700" width="155" height="140" as="geometry" />
        </mxCell>
        <mxCell id="UXyspMPHy7GLzwwd2S_z-12" value="" style="html=1;shadow=0;dashed=0;align=center;verticalAlign=middle;shape=mxgraph.arrows2.arrow;dy=0.6;dx=40;direction=north;notch=0;fontColor=#EEEEEE;labelBackgroundColor=none;fillColor=#09555B;strokeColor=#BAC8D3;" vertex="1" parent="1">
          <mxGeometry x="880" y="600" width="70" height="90" as="geometry" />
        </mxCell>
        <mxCell id="UXyspMPHy7GLzwwd2S_z-13" style="edgeStyle=orthogonalEdgeStyle;rounded=0;orthogonalLoop=1;jettySize=auto;html=1;exitX=0;exitY=0;exitDx=50;exitDy=21;exitPerimeter=0;entryX=0;entryY=0;entryDx=50;entryDy=49;entryPerimeter=0;fontColor=default;labelBackgroundColor=none;strokeColor=#0B4D6A;" edge="1" parent="1" source="UXyspMPHy7GLzwwd2S_z-12" target="UXyspMPHy7GLzwwd2S_z-12">
          <mxGeometry relative="1" as="geometry" />
        </mxCell>
        <mxCell id="UXyspMPHy7GLzwwd2S_z-14" value="" style="html=1;shadow=0;dashed=0;align=center;verticalAlign=middle;shape=mxgraph.arrows2.arrow;dy=0.6;dx=40;flipH=1;notch=0;fontColor=#EEEEEE;labelBackgroundColor=none;fillColor=#09555B;strokeColor=#BAC8D3;" vertex="1" parent="1">
          <mxGeometry x="590" y="490" width="230" height="70" as="geometry" />
        </mxCell>
        <mxCell id="UXyspMPHy7GLzwwd2S_z-15" value="&lt;font style=&quot;font-size: 21px;&quot;&gt;Yes&lt;/font&gt;" style="text;html=1;align=center;verticalAlign=middle;whiteSpace=wrap;rounded=0;fontColor=#EEEEEE;labelBackgroundColor=none;" vertex="1" parent="1">
          <mxGeometry x="690" y="460" width="60" height="30" as="geometry" />
        </mxCell>
        <mxCell id="UXyspMPHy7GLzwwd2S_z-16" value="" style="html=1;shadow=0;dashed=0;align=center;verticalAlign=middle;shape=mxgraph.arrows2.arrow;dy=0.6;dx=40;notch=0;fontColor=#EEEEEE;labelBackgroundColor=none;fillColor=#09555B;strokeColor=#BAC8D3;" vertex="1" parent="1">
          <mxGeometry x="1030" y="490" width="220" height="70" as="geometry" />
        </mxCell>
        <mxCell id="UXyspMPHy7GLzwwd2S_z-17" value="Success response&lt;br&gt;with jwt token&lt;br&gt;&lt;br&gt;Status Code: 200 OK" style="rounded=1;whiteSpace=wrap;html=1;absoluteArcSize=1;arcSize=14;strokeWidth=2;fontColor=#EEEEEE;labelBackgroundColor=none;fillColor=#09555B;strokeColor=#BAC8D3;" vertex="1" parent="1">
          <mxGeometry x="415" y="470" width="145" height="100" as="geometry" />
        </mxCell>
        <mxCell id="UXyspMPHy7GLzwwd2S_z-18" value="Failure&lt;br&gt;&lt;br&gt;Status Code: 401 Error" style="rounded=1;whiteSpace=wrap;html=1;absoluteArcSize=1;arcSize=14;strokeWidth=2;fontColor=#EEEEEE;labelBackgroundColor=none;fillColor=#09555B;strokeColor=#BAC8D3;" vertex="1" parent="1">
          <mxGeometry x="1280" y="470" width="145" height="100" as="geometry" />
        </mxCell>
        <mxCell id="UXyspMPHy7GLzwwd2S_z-19" value="Create Courses" style="rhombus;whiteSpace=wrap;html=1;fontColor=#EEEEEE;labelBackgroundColor=none;fillColor=#09555B;strokeColor=#BAC8D3;" vertex="1" parent="1">
          <mxGeometry x="220" y="1210" width="180" height="170" as="geometry" />
        </mxCell>
        <mxCell id="UXyspMPHy7GLzwwd2S_z-20" value="&lt;font style=&quot;font-size: 20px;&quot;&gt;No&lt;/font&gt;" style="text;html=1;align=center;verticalAlign=middle;whiteSpace=wrap;rounded=0;fontColor=#EEEEEE;labelBackgroundColor=none;" vertex="1" parent="1">
          <mxGeometry x="1080" y="460" width="90" height="30" as="geometry" />
        </mxCell>
        <mxCell id="UXyspMPHy7GLzwwd2S_z-21" value="" style="verticalLabelPosition=bottom;verticalAlign=top;html=1;strokeWidth=2;shape=mxgraph.arrows2.arrow;dy=0.6;dx=40;notch=0;fontColor=#EEEEEE;labelBackgroundColor=none;fillColor=#09555B;strokeColor=#BAC8D3;" vertex="1" parent="1">
          <mxGeometry x="430" y="1260" width="180" height="70" as="geometry" />
        </mxCell>
        <mxCell id="UXyspMPHy7GLzwwd2S_z-22" value="&lt;font style=&quot;font-size: 18px;&quot;&gt;POST&lt;/font&gt;" style="text;html=1;align=center;verticalAlign=middle;whiteSpace=wrap;rounded=0;fontColor=#EEEEEE;labelBackgroundColor=none;" vertex="1" parent="1">
          <mxGeometry x="460" y="1230" width="60" height="30" as="geometry" />
        </mxCell>
        <mxCell id="UXyspMPHy7GLzwwd2S_z-23" value="API Endpoint: /admin/courses&lt;br&gt;&lt;br&gt;&lt;div style=&quot;text-align: left;&quot;&gt;&lt;span style=&quot;&quot;&gt;Payload:&lt;/span&gt;&lt;/div&gt;&lt;div style=&quot;text-align: left;&quot;&gt;&lt;span style=&quot;&quot;&gt;{&lt;/span&gt;&lt;/div&gt;&lt;div style=&quot;text-align: left;&quot;&gt;&lt;span style=&quot;&quot;&gt;&quot;title&quot; : &quot;&quot;,&lt;/span&gt;&lt;/div&gt;&lt;div style=&quot;text-align: left;&quot;&gt;&lt;span style=&quot;&quot;&gt;&quot;description&quot;: &quot;&quot;,&lt;/span&gt;&lt;/div&gt;&lt;div style=&quot;text-align: left;&quot;&gt;&lt;span style=&quot;&quot;&gt;&quot;thumnail&quot;: &quot;&quot;,&lt;/span&gt;&lt;/div&gt;&lt;div style=&quot;text-align: left;&quot;&gt;&lt;span style=&quot;&quot;&gt;&quot;category&quot;:&quot;&quot;,&lt;/span&gt;&lt;/div&gt;&lt;div style=&quot;text-align: left;&quot;&gt;&lt;span style=&quot;&quot;&gt;&quot;videoUrl&quot;: &quot;&quot;&lt;br&gt;&lt;div style=&quot;text-align: left;&quot;&gt;&lt;span style=&quot;text-align: center;&quot;&gt;}&lt;/span&gt;&lt;/div&gt;&lt;/span&gt;&lt;/div&gt;" style="whiteSpace=wrap;html=1;aspect=fixed;fontColor=#EEEEEE;labelBackgroundColor=none;fillColor=#09555B;strokeColor=#BAC8D3;" vertex="1" parent="1">
          <mxGeometry x="630" y="1180" width="200" height="200" as="geometry" />
        </mxCell>
        <mxCell id="UXyspMPHy7GLzwwd2S_z-24" value="" style="verticalLabelPosition=bottom;verticalAlign=top;html=1;strokeWidth=2;shape=mxgraph.arrows2.arrow;dy=0.6;dx=40;notch=0;fontColor=#EEEEEE;labelBackgroundColor=none;fillColor=#09555B;strokeColor=#BAC8D3;" vertex="1" parent="1">
          <mxGeometry x="850" y="1250" width="180" height="70" as="geometry" />
        </mxCell>
        <mxCell id="UXyspMPHy7GLzwwd2S_z-25" style="edgeStyle=orthogonalEdgeStyle;rounded=0;orthogonalLoop=1;jettySize=auto;html=1;exitX=0.5;exitY=1;exitDx=0;exitDy=0;fontColor=default;labelBackgroundColor=none;strokeColor=#0B4D6A;" edge="1" parent="1" source="UXyspMPHy7GLzwwd2S_z-26">
          <mxGeometry relative="1" as="geometry">
            <mxPoint x="1136.666666666667" y="1440" as="targetPoint" />
          </mxGeometry>
        </mxCell>
        <mxCell id="UXyspMPHy7GLzwwd2S_z-26" value="Node JS" style="rhombus;whiteSpace=wrap;html=1;fontColor=#EEEEEE;labelBackgroundColor=none;fillColor=#09555B;strokeColor=#BAC8D3;" vertex="1" parent="1">
          <mxGeometry x="1050" y="1220" width="170" height="140" as="geometry" />
        </mxCell>
        <mxCell id="UXyspMPHy7GLzwwd2S_z-27" value="Data insert into the courses" style="shape=hexagon;perimeter=hexagonPerimeter2;whiteSpace=wrap;html=1;fixedSize=1;fontColor=#EEEEEE;labelBackgroundColor=none;fillColor=#09555B;strokeColor=#BAC8D3;" vertex="1" parent="1">
          <mxGeometry x="1030" y="1460" width="232.5" height="90" as="geometry" />
        </mxCell>
        <mxCell id="UXyspMPHy7GLzwwd2S_z-28" value="" style="html=1;shadow=0;dashed=0;align=center;verticalAlign=middle;shape=mxgraph.arrows2.arrow;dy=0.6;dx=40;direction=south;notch=0;fontColor=#EEEEEE;labelBackgroundColor=none;fillColor=#09555B;strokeColor=#BAC8D3;" vertex="1" parent="1">
          <mxGeometry x="1102.5" y="1560" width="70" height="160" as="geometry" />
        </mxCell>
        <mxCell id="UXyspMPHy7GLzwwd2S_z-29" value="Courses table&lt;br&gt;&lt;br&gt;&lt;div style=&quot;text-align: left;&quot;&gt;&lt;span style=&quot;&quot;&gt;Column:&lt;/span&gt;&lt;/div&gt;&lt;div style=&quot;text-align: left;&quot;&gt;&lt;span style=&quot;&quot;&gt;1.id&lt;/span&gt;&lt;/div&gt;&lt;div style=&quot;text-align: left;&quot;&gt;&lt;span style=&quot;&quot;&gt;2.title&lt;/span&gt;&lt;/div&gt;&lt;div style=&quot;text-align: left;&quot;&gt;&lt;span style=&quot;&quot;&gt;3.category&lt;/span&gt;&lt;/div&gt;&lt;div style=&quot;text-align: left;&quot;&gt;&lt;span style=&quot;&quot;&gt;4.description&lt;/span&gt;&lt;/div&gt;&lt;div style=&quot;text-align: left;&quot;&gt;&lt;span style=&quot;&quot;&gt;5.thumnail&lt;/span&gt;&lt;/div&gt;&lt;div style=&quot;text-align: left;&quot;&gt;&lt;span style=&quot;&quot;&gt;6.videoUrl&lt;/span&gt;&lt;/div&gt;&lt;div style=&quot;text-align: left;&quot;&gt;&lt;span style=&quot;&quot;&gt;7.createdAt&lt;/span&gt;&lt;/div&gt;&lt;div style=&quot;text-align: left;&quot;&gt;8.updatedAt&lt;/div&gt;" style="shape=cylinder3;whiteSpace=wrap;html=1;boundedLbl=1;backgroundOutline=1;size=15;align=center;fontColor=#EEEEEE;labelBackgroundColor=none;fillColor=#09555B;strokeColor=#BAC8D3;" vertex="1" parent="1">
          <mxGeometry x="1000" y="1730" width="280" height="230" as="geometry" />
        </mxCell>
        <mxCell id="UXyspMPHy7GLzwwd2S_z-30" value="Update Course by Id" style="rhombus;whiteSpace=wrap;html=1;fontColor=#EEEEEE;labelBackgroundColor=none;fillColor=#09555B;strokeColor=#BAC8D3;" vertex="1" parent="1">
          <mxGeometry x="220" y="2380" width="180" height="170" as="geometry" />
        </mxCell>
        <mxCell id="UXyspMPHy7GLzwwd2S_z-31" value="" style="verticalLabelPosition=bottom;verticalAlign=top;html=1;strokeWidth=2;shape=mxgraph.arrows2.arrow;dy=0.6;dx=40;notch=0;fontColor=#EEEEEE;labelBackgroundColor=none;fillColor=#09555B;strokeColor=#BAC8D3;" vertex="1" parent="1">
          <mxGeometry x="430" y="2430" width="180" height="70" as="geometry" />
        </mxCell>
        <mxCell id="UXyspMPHy7GLzwwd2S_z-32" value="&lt;font style=&quot;font-size: 18px;&quot;&gt;PUT&lt;/font&gt;" style="text;html=1;align=center;verticalAlign=middle;whiteSpace=wrap;rounded=0;fontColor=#EEEEEE;labelBackgroundColor=none;" vertex="1" parent="1">
          <mxGeometry x="460" y="2400" width="60" height="30" as="geometry" />
        </mxCell>
        <mxCell id="UXyspMPHy7GLzwwd2S_z-33" value="" style="verticalLabelPosition=bottom;verticalAlign=top;html=1;strokeWidth=2;shape=mxgraph.arrows2.arrow;dy=0.6;dx=40;notch=0;fontColor=#EEEEEE;labelBackgroundColor=none;fillColor=#09555B;strokeColor=#BAC8D3;" vertex="1" parent="1">
          <mxGeometry x="850" y="2420" width="180" height="70" as="geometry" />
        </mxCell>
        <mxCell id="UXyspMPHy7GLzwwd2S_z-34" style="edgeStyle=orthogonalEdgeStyle;rounded=0;orthogonalLoop=1;jettySize=auto;html=1;exitX=0.5;exitY=1;exitDx=0;exitDy=0;fontColor=default;labelBackgroundColor=none;strokeColor=#0B4D6A;" edge="1" parent="1" source="UXyspMPHy7GLzwwd2S_z-35">
          <mxGeometry relative="1" as="geometry">
            <mxPoint x="1136.666666666667" y="2610" as="targetPoint" />
          </mxGeometry>
        </mxCell>
        <mxCell id="UXyspMPHy7GLzwwd2S_z-35" value="Node JS" style="rhombus;whiteSpace=wrap;html=1;fontColor=#EEEEEE;labelBackgroundColor=none;fillColor=#09555B;strokeColor=#BAC8D3;" vertex="1" parent="1">
          <mxGeometry x="1050" y="2390" width="170" height="140" as="geometry" />
        </mxCell>
        <mxCell id="UXyspMPHy7GLzwwd2S_z-36" value="Update the table" style="shape=hexagon;perimeter=hexagonPerimeter2;whiteSpace=wrap;html=1;fixedSize=1;fontColor=#EEEEEE;labelBackgroundColor=none;fillColor=#09555B;strokeColor=#BAC8D3;" vertex="1" parent="1">
          <mxGeometry x="1030" y="2630" width="232.5" height="90" as="geometry" />
        </mxCell>
        <mxCell id="UXyspMPHy7GLzwwd2S_z-37" value="" style="html=1;shadow=0;dashed=0;align=center;verticalAlign=middle;shape=mxgraph.arrows2.arrow;dy=0.6;dx=40;direction=south;notch=0;fontColor=#EEEEEE;labelBackgroundColor=none;fillColor=#09555B;strokeColor=#BAC8D3;" vertex="1" parent="1">
          <mxGeometry x="1102.5" y="2730" width="70" height="160" as="geometry" />
        </mxCell>
        <mxCell id="UXyspMPHy7GLzwwd2S_z-38" value="Courses table&lt;br&gt;&lt;br&gt;&lt;div style=&quot;text-align: left;&quot;&gt;&lt;span style=&quot;&quot;&gt;Column:&lt;/span&gt;&lt;/div&gt;&lt;div style=&quot;text-align: left;&quot;&gt;&lt;span style=&quot;&quot;&gt;1.id&lt;/span&gt;&lt;/div&gt;&lt;div style=&quot;text-align: left;&quot;&gt;&lt;span style=&quot;&quot;&gt;2.title&lt;/span&gt;&lt;/div&gt;&lt;div style=&quot;text-align: left;&quot;&gt;&lt;span style=&quot;&quot;&gt;3.category&lt;/span&gt;&lt;/div&gt;&lt;div style=&quot;text-align: left;&quot;&gt;&lt;span style=&quot;&quot;&gt;4.description&lt;/span&gt;&lt;/div&gt;&lt;div style=&quot;text-align: left;&quot;&gt;&lt;span style=&quot;&quot;&gt;5.thumnail&lt;/span&gt;&lt;/div&gt;&lt;div style=&quot;text-align: left;&quot;&gt;&lt;span style=&quot;&quot;&gt;6.videoUrl&lt;/span&gt;&lt;/div&gt;&lt;div style=&quot;text-align: left;&quot;&gt;&lt;span style=&quot;&quot;&gt;7.createdAt&lt;/span&gt;&lt;/div&gt;&lt;div style=&quot;text-align: left;&quot;&gt;8.updatedAt&lt;/div&gt;" style="shape=cylinder3;whiteSpace=wrap;html=1;boundedLbl=1;backgroundOutline=1;size=15;align=center;fontColor=#EEEEEE;labelBackgroundColor=none;fillColor=#09555B;strokeColor=#BAC8D3;" vertex="1" parent="1">
          <mxGeometry x="1000" y="2900" width="280" height="230" as="geometry" />
        </mxCell>
        <mxCell id="UXyspMPHy7GLzwwd2S_z-39" value="API Endpoint: /admin/courses/:ID&lt;br&gt;&lt;br&gt;&lt;div style=&quot;text-align: left;&quot;&gt;&lt;span style=&quot;&quot;&gt;Payload:&lt;/span&gt;&lt;/div&gt;&lt;div style=&quot;text-align: left;&quot;&gt;&lt;span style=&quot;&quot;&gt;{&lt;/span&gt;&lt;/div&gt;&lt;div style=&quot;text-align: left;&quot;&gt;&lt;span style=&quot;&quot;&gt;&quot;title&quot; : &quot;&quot;,&lt;/span&gt;&lt;/div&gt;&lt;div style=&quot;text-align: left;&quot;&gt;&lt;span style=&quot;&quot;&gt;&quot;description&quot;: &quot;&quot;,&lt;/span&gt;&lt;/div&gt;&lt;div style=&quot;text-align: left;&quot;&gt;&lt;span style=&quot;&quot;&gt;&quot;thumnail&quot;: &quot;&quot;,&lt;/span&gt;&lt;/div&gt;&lt;div style=&quot;text-align: left;&quot;&gt;&lt;span style=&quot;&quot;&gt;&quot;category&quot;:&quot;&quot;,&lt;/span&gt;&lt;/div&gt;&lt;div style=&quot;text-align: left;&quot;&gt;&lt;span style=&quot;&quot;&gt;&quot;videoUrl&quot;: &quot;&quot;&lt;br&gt;&lt;div style=&quot;text-align: left;&quot;&gt;&lt;span style=&quot;text-align: center;&quot;&gt;}&lt;/span&gt;&lt;/div&gt;&lt;/span&gt;&lt;/div&gt;" style="whiteSpace=wrap;html=1;aspect=fixed;fontColor=#EEEEEE;labelBackgroundColor=none;fillColor=#09555B;strokeColor=#BAC8D3;" vertex="1" parent="1">
          <mxGeometry x="630" y="2365" width="200" height="200" as="geometry" />
        </mxCell>
        <mxCell id="UXyspMPHy7GLzwwd2S_z-40" value="" style="html=1;shadow=0;dashed=0;align=center;verticalAlign=middle;shape=mxgraph.arrows2.arrow;dy=0.58;dx=37.07;flipH=1;notch=0;fontColor=#EEEEEE;labelBackgroundColor=none;fillColor=#09555B;strokeColor=#BAC8D3;" vertex="1" parent="1">
          <mxGeometry x="847.5" y="1470" width="160" height="70" as="geometry" />
        </mxCell>
        <mxCell id="UXyspMPHy7GLzwwd2S_z-41" style="edgeStyle=orthogonalEdgeStyle;rounded=0;orthogonalLoop=1;jettySize=auto;html=1;exitX=0;exitY=0;exitDx=120;exitDy=49;exitPerimeter=0;entryX=0;entryY=0;entryDx=120;entryDy=21;entryPerimeter=0;fontColor=default;labelBackgroundColor=none;strokeColor=#0B4D6A;" edge="1" parent="1" source="UXyspMPHy7GLzwwd2S_z-40" target="UXyspMPHy7GLzwwd2S_z-40">
          <mxGeometry relative="1" as="geometry" />
        </mxCell>
        <mxCell id="UXyspMPHy7GLzwwd2S_z-42" value="Success" style="text;html=1;align=center;verticalAlign=middle;whiteSpace=wrap;rounded=0;fontColor=#EEEEEE;labelBackgroundColor=none;" vertex="1" parent="1">
          <mxGeometry x="910" y="1450" width="60" height="30" as="geometry" />
        </mxCell>
        <mxCell id="UXyspMPHy7GLzwwd2S_z-43" value="&lt;div style=&quot;text-align: left;&quot;&gt;&lt;span style=&quot;&quot;&gt;Status code: 201 Created&lt;/span&gt;&lt;/div&gt;&lt;div style=&quot;text-align: left;&quot;&gt;&lt;br&gt;&lt;/div&gt;API Endpoint: /admin/courses&lt;br&gt;&lt;br&gt;&lt;div style=&quot;text-align: left;&quot;&gt;&lt;span style=&quot;&quot;&gt;Payload:&lt;/span&gt;&lt;/div&gt;&lt;div style=&quot;text-align: left;&quot;&gt;&lt;span style=&quot;&quot;&gt;{&lt;br&gt;&quot;id&quot; : &quot;&quot;,&lt;/span&gt;&lt;/div&gt;&lt;div style=&quot;text-align: left;&quot;&gt;&lt;span style=&quot;&quot;&gt;&quot;title&quot; : &quot;&quot;,&lt;/span&gt;&lt;/div&gt;&lt;div style=&quot;text-align: left;&quot;&gt;&lt;span style=&quot;&quot;&gt;&quot;description&quot;: &quot;&quot;,&lt;/span&gt;&lt;/div&gt;&lt;div style=&quot;text-align: left;&quot;&gt;&lt;span style=&quot;&quot;&gt;&quot;thumnail&quot;: &quot;&quot;,&lt;/span&gt;&lt;/div&gt;&lt;div style=&quot;text-align: left;&quot;&gt;&lt;span style=&quot;&quot;&gt;&quot;category&quot;:&quot;&quot;,&lt;/span&gt;&lt;/div&gt;&lt;div style=&quot;text-align: left;&quot;&gt;&lt;span style=&quot;&quot;&gt;&quot;videoUrl&quot;: &quot;&quot;,&lt;br&gt;&quot;createdAt&quot; : &quot;&quot;,&lt;br&gt;&quot;updatedAt&quot; : &quot;&quot;&lt;br&gt;&lt;div&gt;&lt;span style=&quot;text-align: center;&quot;&gt;}&lt;/span&gt;&lt;/div&gt;&lt;/span&gt;&lt;/div&gt;" style="whiteSpace=wrap;html=1;aspect=fixed;fontColor=#EEEEEE;labelBackgroundColor=none;fillColor=#09555B;strokeColor=#BAC8D3;" vertex="1" parent="1">
          <mxGeometry x="600" y="1410" width="240" height="240" as="geometry" />
        </mxCell>
        <mxCell id="UXyspMPHy7GLzwwd2S_z-44" value="" style="html=1;shadow=0;dashed=0;align=center;verticalAlign=middle;shape=mxgraph.arrows2.arrow;dy=0.58;dx=37.07;flipH=1;notch=0;fontColor=#EEEEEE;labelBackgroundColor=none;fillColor=#09555B;strokeColor=#BAC8D3;" vertex="1" parent="1">
          <mxGeometry x="847.5" y="2650" width="160" height="70" as="geometry" />
        </mxCell>
        <mxCell id="UXyspMPHy7GLzwwd2S_z-45" style="edgeStyle=orthogonalEdgeStyle;rounded=0;orthogonalLoop=1;jettySize=auto;html=1;exitX=0;exitY=0;exitDx=120;exitDy=49;exitPerimeter=0;entryX=0;entryY=0;entryDx=120;entryDy=21;entryPerimeter=0;fontColor=default;labelBackgroundColor=none;strokeColor=#0B4D6A;" edge="1" parent="1" source="UXyspMPHy7GLzwwd2S_z-44" target="UXyspMPHy7GLzwwd2S_z-44">
          <mxGeometry relative="1" as="geometry" />
        </mxCell>
        <mxCell id="UXyspMPHy7GLzwwd2S_z-46" value="Success" style="text;html=1;align=center;verticalAlign=middle;whiteSpace=wrap;rounded=0;fontColor=#EEEEEE;labelBackgroundColor=none;" vertex="1" parent="1">
          <mxGeometry x="910" y="2630" width="60" height="30" as="geometry" />
        </mxCell>
        <mxCell id="UXyspMPHy7GLzwwd2S_z-47" value="&lt;div style=&quot;text-align: left;&quot;&gt;&lt;span style=&quot;&quot;&gt;Status code: 200 OK&lt;/span&gt;&lt;/div&gt;&lt;div style=&quot;text-align: left;&quot;&gt;&lt;br&gt;&lt;/div&gt;API Endpoint: /admin/courses&lt;br&gt;&lt;br&gt;&lt;div style=&quot;text-align: left;&quot;&gt;&lt;span style=&quot;&quot;&gt;Payload:&lt;/span&gt;&lt;/div&gt;&lt;div style=&quot;text-align: left;&quot;&gt;&lt;span style=&quot;&quot;&gt;{&lt;br&gt;&quot;id&quot; : &quot;&quot;,&lt;/span&gt;&lt;/div&gt;&lt;div style=&quot;text-align: left;&quot;&gt;&lt;span style=&quot;&quot;&gt;&quot;title&quot; : &quot;&quot;,&lt;/span&gt;&lt;/div&gt;&lt;div style=&quot;text-align: left;&quot;&gt;&lt;span style=&quot;&quot;&gt;&quot;description&quot;: &quot;&quot;,&lt;/span&gt;&lt;/div&gt;&lt;div style=&quot;text-align: left;&quot;&gt;&lt;span style=&quot;&quot;&gt;&quot;thumnail&quot;: &quot;&quot;,&lt;/span&gt;&lt;/div&gt;&lt;div style=&quot;text-align: left;&quot;&gt;&lt;span style=&quot;&quot;&gt;&quot;category&quot;:&quot;&quot;,&lt;/span&gt;&lt;/div&gt;&lt;div style=&quot;text-align: left;&quot;&gt;&lt;span style=&quot;&quot;&gt;&quot;videoUrl&quot;: &quot;&quot;,&lt;br&gt;&quot;createdAt&quot; : &quot;&quot;,&lt;br&gt;&quot;updatedAt&quot; : &quot;&quot;&lt;br&gt;&lt;div&gt;&lt;span style=&quot;text-align: center;&quot;&gt;}&lt;/span&gt;&lt;/div&gt;&lt;/span&gt;&lt;/div&gt;" style="whiteSpace=wrap;html=1;aspect=fixed;fontColor=#EEEEEE;labelBackgroundColor=none;fillColor=#09555B;strokeColor=#BAC8D3;" vertex="1" parent="1">
          <mxGeometry x="600" y="2590" width="240" height="240" as="geometry" />
        </mxCell>
        <mxCell id="UXyspMPHy7GLzwwd2S_z-48" value="" style="html=1;shadow=0;dashed=0;align=center;verticalAlign=middle;shape=mxgraph.arrows2.sharpArrow2;dy1=0.67;dx1=18;dx2=18;dy3=0.15;dx3=27;notch=0;fontColor=#EEEEEE;labelBackgroundColor=none;fillColor=#09555B;strokeColor=#BAC8D3;" vertex="1" parent="1">
          <mxGeometry x="1280" y="1470" width="160" height="60" as="geometry" />
        </mxCell>
        <mxCell id="UXyspMPHy7GLzwwd2S_z-49" value="Failure" style="text;html=1;align=center;verticalAlign=middle;whiteSpace=wrap;rounded=0;fontColor=#EEEEEE;labelBackgroundColor=none;" vertex="1" parent="1">
          <mxGeometry x="1298.75" y="1450" width="107.5" height="30" as="geometry" />
        </mxCell>
        <mxCell id="UXyspMPHy7GLzwwd2S_z-50" value="Status Code: 500 Internal Server Error" style="whiteSpace=wrap;html=1;aspect=fixed;fontColor=#EEEEEE;labelBackgroundColor=none;fillColor=#09555B;strokeColor=#BAC8D3;" vertex="1" parent="1">
          <mxGeometry x="1470" y="1440" width="130" height="130" as="geometry" />
        </mxCell>
        <mxCell id="UXyspMPHy7GLzwwd2S_z-51" value="" style="html=1;shadow=0;dashed=0;align=center;verticalAlign=middle;shape=mxgraph.arrows2.sharpArrow2;dy1=0.67;dx1=18;dx2=18;dy3=0.15;dx3=27;notch=0;fontColor=#EEEEEE;labelBackgroundColor=none;fillColor=#09555B;strokeColor=#BAC8D3;" vertex="1" parent="1">
          <mxGeometry x="1280" y="2650" width="160" height="60" as="geometry" />
        </mxCell>
        <mxCell id="UXyspMPHy7GLzwwd2S_z-52" value="Failure" style="text;html=1;align=center;verticalAlign=middle;whiteSpace=wrap;rounded=0;fontColor=#EEEEEE;labelBackgroundColor=none;" vertex="1" parent="1">
          <mxGeometry x="1298.75" y="2630" width="107.5" height="30" as="geometry" />
        </mxCell>
        <mxCell id="UXyspMPHy7GLzwwd2S_z-53" value="Status Code: 500 Internal Server Error" style="whiteSpace=wrap;html=1;aspect=fixed;fontColor=#EEEEEE;labelBackgroundColor=none;fillColor=#09555B;strokeColor=#BAC8D3;" vertex="1" parent="1">
          <mxGeometry x="1470" y="2620" width="130" height="130" as="geometry" />
        </mxCell>
        <mxCell id="UXyspMPHy7GLzwwd2S_z-54" value="Delete Course by Id" style="rhombus;whiteSpace=wrap;html=1;fontColor=#EEEEEE;labelBackgroundColor=none;fillColor=#09555B;strokeColor=#BAC8D3;" vertex="1" parent="1">
          <mxGeometry x="220" y="3425" width="180" height="170" as="geometry" />
        </mxCell>
        <mxCell id="UXyspMPHy7GLzwwd2S_z-55" value="" style="verticalLabelPosition=bottom;verticalAlign=top;html=1;strokeWidth=2;shape=mxgraph.arrows2.arrow;dy=0.6;dx=40;notch=0;fontColor=#EEEEEE;labelBackgroundColor=none;fillColor=#09555B;strokeColor=#BAC8D3;" vertex="1" parent="1">
          <mxGeometry x="430" y="3475" width="180" height="70" as="geometry" />
        </mxCell>
        <mxCell id="UXyspMPHy7GLzwwd2S_z-56" value="&lt;font style=&quot;font-size: 18px;&quot;&gt;DELETE&lt;/font&gt;" style="text;html=1;align=center;verticalAlign=middle;whiteSpace=wrap;rounded=0;fontColor=#EEEEEE;labelBackgroundColor=none;" vertex="1" parent="1">
          <mxGeometry x="460" y="3445" width="60" height="30" as="geometry" />
        </mxCell>
        <mxCell id="UXyspMPHy7GLzwwd2S_z-57" value="" style="verticalLabelPosition=bottom;verticalAlign=top;html=1;strokeWidth=2;shape=mxgraph.arrows2.arrow;dy=0.6;dx=40;notch=0;fontColor=#EEEEEE;labelBackgroundColor=none;fillColor=#09555B;strokeColor=#BAC8D3;" vertex="1" parent="1">
          <mxGeometry x="850" y="3465" width="180" height="70" as="geometry" />
        </mxCell>
        <mxCell id="UXyspMPHy7GLzwwd2S_z-58" style="edgeStyle=orthogonalEdgeStyle;rounded=0;orthogonalLoop=1;jettySize=auto;html=1;exitX=0.5;exitY=1;exitDx=0;exitDy=0;fontColor=default;labelBackgroundColor=none;strokeColor=#0B4D6A;" edge="1" parent="1" source="UXyspMPHy7GLzwwd2S_z-59">
          <mxGeometry relative="1" as="geometry">
            <mxPoint x="1136.666666666667" y="3655" as="targetPoint" />
          </mxGeometry>
        </mxCell>
        <mxCell id="UXyspMPHy7GLzwwd2S_z-59" value="Node JS" style="rhombus;whiteSpace=wrap;html=1;fontColor=#EEEEEE;labelBackgroundColor=none;fillColor=#09555B;strokeColor=#BAC8D3;" vertex="1" parent="1">
          <mxGeometry x="1050" y="3435" width="170" height="140" as="geometry" />
        </mxCell>
        <mxCell id="UXyspMPHy7GLzwwd2S_z-60" value="Delete the course in the admin table" style="shape=hexagon;perimeter=hexagonPerimeter2;whiteSpace=wrap;html=1;fixedSize=1;fontColor=#EEEEEE;labelBackgroundColor=none;fillColor=#09555B;strokeColor=#BAC8D3;" vertex="1" parent="1">
          <mxGeometry x="1030" y="3675" width="232.5" height="90" as="geometry" />
        </mxCell>
        <mxCell id="UXyspMPHy7GLzwwd2S_z-61" value="" style="html=1;shadow=0;dashed=0;align=center;verticalAlign=middle;shape=mxgraph.arrows2.arrow;dy=0.6;dx=40;direction=south;notch=0;fontColor=#EEEEEE;labelBackgroundColor=none;fillColor=#09555B;strokeColor=#BAC8D3;" vertex="1" parent="1">
          <mxGeometry x="1102.5" y="3775" width="70" height="160" as="geometry" />
        </mxCell>
        <mxCell id="UXyspMPHy7GLzwwd2S_z-62" value="Courses table&lt;br&gt;&lt;br&gt;&lt;div style=&quot;text-align: left;&quot;&gt;&lt;span style=&quot;&quot;&gt;Column:&lt;/span&gt;&lt;/div&gt;&lt;div style=&quot;text-align: left;&quot;&gt;&lt;span style=&quot;&quot;&gt;1.id&lt;/span&gt;&lt;/div&gt;&lt;div style=&quot;text-align: left;&quot;&gt;&lt;span style=&quot;&quot;&gt;2.title&lt;/span&gt;&lt;/div&gt;&lt;div style=&quot;text-align: left;&quot;&gt;&lt;span style=&quot;&quot;&gt;3.category&lt;/span&gt;&lt;/div&gt;&lt;div style=&quot;text-align: left;&quot;&gt;&lt;span style=&quot;&quot;&gt;4.description&lt;/span&gt;&lt;/div&gt;&lt;div style=&quot;text-align: left;&quot;&gt;&lt;span style=&quot;&quot;&gt;5.thumnail&lt;/span&gt;&lt;/div&gt;&lt;div style=&quot;text-align: left;&quot;&gt;&lt;span style=&quot;&quot;&gt;6.videoUrl&lt;/span&gt;&lt;/div&gt;&lt;div style=&quot;text-align: left;&quot;&gt;&lt;span style=&quot;&quot;&gt;7.createdAt&lt;/span&gt;&lt;/div&gt;&lt;div style=&quot;text-align: left;&quot;&gt;8.updatedAt&lt;/div&gt;" style="shape=cylinder3;whiteSpace=wrap;html=1;boundedLbl=1;backgroundOutline=1;size=15;align=center;fontColor=#EEEEEE;labelBackgroundColor=none;fillColor=#09555B;strokeColor=#BAC8D3;" vertex="1" parent="1">
          <mxGeometry x="1000" y="3945" width="280" height="230" as="geometry" />
        </mxCell>
        <mxCell id="UXyspMPHy7GLzwwd2S_z-63" value="API Endpoint: /admin/courses/:ID" style="whiteSpace=wrap;html=1;aspect=fixed;fontColor=#EEEEEE;labelBackgroundColor=none;fillColor=#09555B;strokeColor=#BAC8D3;" vertex="1" parent="1">
          <mxGeometry x="640" y="3415" width="160" height="160" as="geometry" />
        </mxCell>
        <mxCell id="UXyspMPHy7GLzwwd2S_z-64" value="" style="html=1;shadow=0;dashed=0;align=center;verticalAlign=middle;shape=mxgraph.arrows2.arrow;dy=0.58;dx=37.07;flipH=1;notch=0;fontColor=#EEEEEE;labelBackgroundColor=none;fillColor=#09555B;strokeColor=#BAC8D3;" vertex="1" parent="1">
          <mxGeometry x="847.5" y="3695" width="160" height="70" as="geometry" />
        </mxCell>
        <mxCell id="UXyspMPHy7GLzwwd2S_z-65" style="edgeStyle=orthogonalEdgeStyle;rounded=0;orthogonalLoop=1;jettySize=auto;html=1;exitX=0;exitY=0;exitDx=120;exitDy=49;exitPerimeter=0;entryX=0;entryY=0;entryDx=120;entryDy=21;entryPerimeter=0;fontColor=default;labelBackgroundColor=none;strokeColor=#0B4D6A;" edge="1" parent="1" source="UXyspMPHy7GLzwwd2S_z-64" target="UXyspMPHy7GLzwwd2S_z-64">
          <mxGeometry relative="1" as="geometry" />
        </mxCell>
        <mxCell id="UXyspMPHy7GLzwwd2S_z-66" value="Success" style="text;html=1;align=center;verticalAlign=middle;whiteSpace=wrap;rounded=0;fontColor=#EEEEEE;labelBackgroundColor=none;" vertex="1" parent="1">
          <mxGeometry x="910" y="3675" width="60" height="30" as="geometry" />
        </mxCell>
        <mxCell id="UXyspMPHy7GLzwwd2S_z-67" value="&lt;div style=&quot;text-align: left;&quot;&gt;&lt;span style=&quot;&quot;&gt;Status code: 204&lt;/span&gt;&lt;/div&gt;" style="whiteSpace=wrap;html=1;aspect=fixed;fontColor=#EEEEEE;labelBackgroundColor=none;fillColor=#09555B;strokeColor=#BAC8D3;" vertex="1" parent="1">
          <mxGeometry x="665" y="3652.5" width="155" height="155" as="geometry" />
        </mxCell>
        <mxCell id="UXyspMPHy7GLzwwd2S_z-68" value="" style="html=1;shadow=0;dashed=0;align=center;verticalAlign=middle;shape=mxgraph.arrows2.sharpArrow2;dy1=0.67;dx1=18;dx2=18;dy3=0.15;dx3=27;notch=0;fontColor=#EEEEEE;labelBackgroundColor=none;fillColor=#09555B;strokeColor=#BAC8D3;" vertex="1" parent="1">
          <mxGeometry x="1280" y="3695" width="160" height="60" as="geometry" />
        </mxCell>
        <mxCell id="UXyspMPHy7GLzwwd2S_z-69" value="Failure" style="text;html=1;align=center;verticalAlign=middle;whiteSpace=wrap;rounded=0;fontColor=#EEEEEE;labelBackgroundColor=none;" vertex="1" parent="1">
          <mxGeometry x="1298.75" y="3675" width="107.5" height="30" as="geometry" />
        </mxCell>
        <mxCell id="UXyspMPHy7GLzwwd2S_z-70" value="Status Code: 500 Internal Server Error" style="whiteSpace=wrap;html=1;aspect=fixed;fontColor=#EEEEEE;labelBackgroundColor=none;fillColor=#09555B;strokeColor=#BAC8D3;" vertex="1" parent="1">
          <mxGeometry x="1470" y="3665" width="130" height="130" as="geometry" />
        </mxCell>
        <mxCell id="UXyspMPHy7GLzwwd2S_z-71" value="Get all courses" style="rhombus;whiteSpace=wrap;html=1;fontColor=#EEEEEE;labelBackgroundColor=none;fillColor=#09555B;strokeColor=#BAC8D3;" vertex="1" parent="1">
          <mxGeometry x="225" y="4560" width="180" height="170" as="geometry" />
        </mxCell>
        <mxCell id="UXyspMPHy7GLzwwd2S_z-72" value="" style="verticalLabelPosition=bottom;verticalAlign=top;html=1;strokeWidth=2;shape=mxgraph.arrows2.arrow;dy=0.6;dx=40;notch=0;fontColor=#EEEEEE;labelBackgroundColor=none;fillColor=#09555B;strokeColor=#BAC8D3;" vertex="1" parent="1">
          <mxGeometry x="435" y="4610" width="180" height="70" as="geometry" />
        </mxCell>
        <mxCell id="UXyspMPHy7GLzwwd2S_z-73" value="" style="verticalLabelPosition=bottom;verticalAlign=top;html=1;strokeWidth=2;shape=mxgraph.arrows2.arrow;dy=0.6;dx=40;notch=0;fontColor=#EEEEEE;labelBackgroundColor=none;fillColor=#09555B;strokeColor=#BAC8D3;" vertex="1" parent="1">
          <mxGeometry x="855" y="4600" width="180" height="70" as="geometry" />
        </mxCell>
        <mxCell id="UXyspMPHy7GLzwwd2S_z-74" style="edgeStyle=orthogonalEdgeStyle;rounded=0;orthogonalLoop=1;jettySize=auto;html=1;exitX=0.5;exitY=1;exitDx=0;exitDy=0;fontColor=default;labelBackgroundColor=none;strokeColor=#0B4D6A;" edge="1" parent="1" source="UXyspMPHy7GLzwwd2S_z-75">
          <mxGeometry relative="1" as="geometry">
            <mxPoint x="1141.666666666667" y="4790" as="targetPoint" />
          </mxGeometry>
        </mxCell>
        <mxCell id="UXyspMPHy7GLzwwd2S_z-75" value="Node JS" style="rhombus;whiteSpace=wrap;html=1;fontColor=#EEEEEE;labelBackgroundColor=none;fillColor=#09555B;strokeColor=#BAC8D3;" vertex="1" parent="1">
          <mxGeometry x="1055" y="4570" width="170" height="140" as="geometry" />
        </mxCell>
        <mxCell id="UXyspMPHy7GLzwwd2S_z-76" value="Get the course from admin table" style="shape=hexagon;perimeter=hexagonPerimeter2;whiteSpace=wrap;html=1;fixedSize=1;fontColor=#EEEEEE;labelBackgroundColor=none;fillColor=#09555B;strokeColor=#BAC8D3;" vertex="1" parent="1">
          <mxGeometry x="1035" y="4810" width="232.5" height="90" as="geometry" />
        </mxCell>
        <mxCell id="UXyspMPHy7GLzwwd2S_z-77" value="Courses table&lt;br&gt;&lt;br&gt;&lt;div style=&quot;text-align: left;&quot;&gt;&lt;span style=&quot;&quot;&gt;Column:&lt;/span&gt;&lt;/div&gt;&lt;div style=&quot;text-align: left;&quot;&gt;&lt;span style=&quot;&quot;&gt;1.id&lt;/span&gt;&lt;/div&gt;&lt;div style=&quot;text-align: left;&quot;&gt;&lt;span style=&quot;&quot;&gt;2.title&lt;/span&gt;&lt;/div&gt;&lt;div style=&quot;text-align: left;&quot;&gt;&lt;span style=&quot;&quot;&gt;3.category&lt;/span&gt;&lt;/div&gt;&lt;div style=&quot;text-align: left;&quot;&gt;&lt;span style=&quot;&quot;&gt;4.description&lt;/span&gt;&lt;/div&gt;&lt;div style=&quot;text-align: left;&quot;&gt;&lt;span style=&quot;&quot;&gt;5.thumnail&lt;/span&gt;&lt;/div&gt;&lt;div style=&quot;text-align: left;&quot;&gt;&lt;span style=&quot;&quot;&gt;6.videoUrl&lt;/span&gt;&lt;/div&gt;&lt;div style=&quot;text-align: left;&quot;&gt;&lt;span style=&quot;&quot;&gt;7.createdAt&lt;/span&gt;&lt;/div&gt;&lt;div style=&quot;text-align: left;&quot;&gt;8.updatedAt&lt;/div&gt;" style="shape=cylinder3;whiteSpace=wrap;html=1;boundedLbl=1;backgroundOutline=1;size=15;align=center;fontColor=#EEEEEE;labelBackgroundColor=none;fillColor=#09555B;strokeColor=#BAC8D3;" vertex="1" parent="1">
          <mxGeometry x="1005" y="5080" width="280" height="230" as="geometry" />
        </mxCell>
        <mxCell id="UXyspMPHy7GLzwwd2S_z-78" value="" style="html=1;shadow=0;dashed=0;align=center;verticalAlign=middle;shape=mxgraph.arrows2.arrow;dy=0.58;dx=37.07;flipH=1;notch=0;fontColor=#EEEEEE;labelBackgroundColor=none;fillColor=#09555B;strokeColor=#BAC8D3;" vertex="1" parent="1">
          <mxGeometry x="852.5" y="4830" width="160" height="70" as="geometry" />
        </mxCell>
        <mxCell id="UXyspMPHy7GLzwwd2S_z-79" style="edgeStyle=orthogonalEdgeStyle;rounded=0;orthogonalLoop=1;jettySize=auto;html=1;exitX=0;exitY=0;exitDx=120;exitDy=49;exitPerimeter=0;entryX=0;entryY=0;entryDx=120;entryDy=21;entryPerimeter=0;fontColor=default;labelBackgroundColor=none;strokeColor=#0B4D6A;" edge="1" parent="1" source="UXyspMPHy7GLzwwd2S_z-78" target="UXyspMPHy7GLzwwd2S_z-78">
          <mxGeometry relative="1" as="geometry" />
        </mxCell>
        <mxCell id="UXyspMPHy7GLzwwd2S_z-80" value="Success" style="text;html=1;align=center;verticalAlign=middle;whiteSpace=wrap;rounded=0;fontColor=#EEEEEE;labelBackgroundColor=none;" vertex="1" parent="1">
          <mxGeometry x="915" y="4810" width="60" height="30" as="geometry" />
        </mxCell>
        <mxCell id="UXyspMPHy7GLzwwd2S_z-81" value="&lt;div style=&quot;&quot;&gt;&lt;span style=&quot;&quot;&gt;Status code: 200 OK&lt;br&gt;&lt;br&gt;It will show all the courses in the response&lt;/span&gt;&lt;/div&gt;" style="whiteSpace=wrap;html=1;aspect=fixed;align=center;fontColor=#EEEEEE;labelBackgroundColor=none;fillColor=#09555B;strokeColor=#BAC8D3;" vertex="1" parent="1">
          <mxGeometry x="657.5" y="4790" width="172.5" height="172.5" as="geometry" />
        </mxCell>
        <mxCell id="UXyspMPHy7GLzwwd2S_z-82" value="" style="html=1;shadow=0;dashed=0;align=center;verticalAlign=middle;shape=mxgraph.arrows2.sharpArrow2;dy1=0.67;dx1=18;dx2=18;dy3=0.15;dx3=27;notch=0;fontColor=#EEEEEE;labelBackgroundColor=none;fillColor=#09555B;strokeColor=#BAC8D3;" vertex="1" parent="1">
          <mxGeometry x="1285" y="4830" width="160" height="60" as="geometry" />
        </mxCell>
        <mxCell id="UXyspMPHy7GLzwwd2S_z-83" value="Not Found" style="text;html=1;align=center;verticalAlign=middle;whiteSpace=wrap;rounded=0;fontColor=#EEEEEE;labelBackgroundColor=none;" vertex="1" parent="1">
          <mxGeometry x="1303.75" y="4810" width="107.5" height="30" as="geometry" />
        </mxCell>
        <mxCell id="UXyspMPHy7GLzwwd2S_z-84" value="Status Code: 404&lt;br&gt;&lt;br&gt;In the response, will show the empty array" style="whiteSpace=wrap;html=1;aspect=fixed;fontColor=#EEEEEE;labelBackgroundColor=none;fillColor=#09555B;strokeColor=#BAC8D3;" vertex="1" parent="1">
          <mxGeometry x="1475" y="4800" width="130" height="130" as="geometry" />
        </mxCell>
        <mxCell id="UXyspMPHy7GLzwwd2S_z-85" value="GET" style="text;html=1;align=center;verticalAlign=middle;whiteSpace=wrap;rounded=0;fontColor=#EEEEEE;labelBackgroundColor=none;" vertex="1" parent="1">
          <mxGeometry x="470" y="4580" width="60" height="30" as="geometry" />
        </mxCell>
        <mxCell id="UXyspMPHy7GLzwwd2S_z-86" value="API Endpoint: /admin/courses" style="whiteSpace=wrap;html=1;aspect=fixed;fontColor=#EEEEEE;labelBackgroundColor=none;fillColor=#09555B;strokeColor=#BAC8D3;" vertex="1" parent="1">
          <mxGeometry x="650" y="4550" width="180" height="180" as="geometry" />
        </mxCell>
        <mxCell id="UXyspMPHy7GLzwwd2S_z-87" value="" style="html=1;shadow=0;dashed=0;align=center;verticalAlign=middle;shape=mxgraph.arrows2.arrow;dy=0.6;dx=40;direction=north;notch=0;fontColor=#EEEEEE;labelBackgroundColor=none;fillColor=#09555B;strokeColor=#BAC8D3;" vertex="1" parent="1">
          <mxGeometry x="1111.25" y="4920" width="70" height="140" as="geometry" />
        </mxCell>
      </root>
    </mxGraphModel>
  </diagram>
</mxfile>
